<svg width="64" height="62" viewBox="0 0 64 62" fill="none" xmlns="http://www.w3.org/2000/svg">
<path d="M40 30.9999C40 35.2802 36.4184 38.7499 32 38.7499C27.5819 38.7499 24.0001 35.2802 24.0001 30.9999C24.0001 26.7198 27.5819 23.25 32 23.25C36.4184 23.25 40 26.7198 40 30.9999Z" stroke="white" stroke-width="5" stroke-linecap="round" stroke-linejoin="round"/>
<path d="M20.3823 13.4054L20.1787 15.7728C20.0722 17.0112 20.0189 17.6304 19.7433 18.114C19.5003 18.5403 19.1379 18.8914 18.6978 19.1268C18.1986 19.3938 17.5594 19.4454 16.2811 19.5486L13.8373 19.7459C11.1002 19.9669 9.73173 20.0773 9.05712 20.683C8.47005 21.2101 8.15842 21.9648 8.20832 22.7387C8.26562 23.628 9.17797 24.6224 11.0027 26.6109L12.5107 28.2547C13.4023 29.2263 13.8481 29.7119 14.0173 30.2604C14.1665 30.7432 14.1665 31.258 14.0173 31.7409C13.8481 32.2891 13.4023 32.775 12.5107 33.7466L11.0027 35.3901C9.17797 37.3787 8.26562 38.3731 8.20832 39.2625C8.15842 40.0365 8.47005 40.7911 9.05712 41.3181C9.73173 41.9239 11.1002 42.0344 13.8373 42.2553L16.2811 42.4527C17.5594 42.5557 18.1986 42.6074 18.6978 42.8745C19.1379 43.1099 19.5003 43.4609 19.7433 43.8872C20.0189 44.3708 20.0722 44.99 20.1787 46.2285L20.3823 48.5958C20.6105 51.2474 20.7245 52.5731 21.3497 53.2267C21.8938 53.7953 22.6729 54.0973 23.4717 54.049C24.3897 53.9934 25.4161 53.1094 27.4688 51.3419L29.1656 49.8808C30.1685 49.0172 30.6699 48.5855 31.236 48.4215C31.7344 48.2768 32.2659 48.2768 32.7643 48.4215C33.3301 48.5855 33.8317 49.0172 34.8347 49.8808L36.5312 51.3419C38.584 53.1094 39.6104 53.9934 40.5285 54.049C41.3275 54.0973 42.1064 53.7953 42.6504 53.2267C43.2757 52.5731 43.3899 51.2474 43.6179 48.5958L43.8216 46.2285C43.928 44.99 43.9813 44.3708 44.2571 43.8872C44.5 43.4609 44.8624 43.1099 45.3024 42.8745C45.8016 42.6074 46.4408 42.5557 47.7192 42.4527L50.1629 42.2553C52.9 42.0344 54.2685 41.9239 54.9432 41.3181C55.5301 40.7911 55.8419 40.0365 55.792 39.2625C55.7347 38.3731 54.8221 37.3787 52.9976 35.3901L51.4893 33.7466C50.5979 32.775 50.1523 32.2891 49.9829 31.7409C49.8336 31.258 49.8336 30.7432 49.9829 30.2604C50.1523 29.7119 50.5979 29.2263 51.4893 28.2547L52.9976 26.6109C54.8221 24.6224 55.7347 23.628 55.792 22.7387C55.8419 21.9648 55.5301 21.2101 54.9432 20.683C54.2685 20.0773 52.9 19.9669 50.1629 19.7459L47.7192 19.5486C46.4408 19.4454 45.8016 19.3938 45.3024 19.1268C44.8624 18.8914 44.5 18.5403 44.2571 18.114C43.9813 17.6303 43.928 17.0112 43.8216 15.7728L43.6179 13.4054C43.3899 10.7538 43.2757 9.4281 42.6504 8.77457C42.1064 8.20585 41.3275 7.90396 40.5285 7.9523C39.6104 8.00781 38.584 8.89165 36.5312 10.6593L34.8347 12.1203C33.8317 12.984 33.3301 13.4158 32.7643 13.5798C32.2659 13.7243 31.7344 13.7243 31.236 13.5798C30.6699 13.4158 30.1685 12.984 29.1656 12.1203L27.4688 10.6593C25.4161 8.89165 24.3897 8.00781 23.4717 7.9523C22.6729 7.90396 21.8938 8.20585 21.3497 8.77457C20.7245 9.4281 20.6105 10.7538 20.3823 13.4054Z" stroke="white" stroke-width="5" stroke-linecap="round" stroke-linejoin="round"/>
</svg>
