<svg width="213" height="90" viewBox="0 0 213 90" fill="none" xmlns="http://www.w3.org/2000/svg">
<path d="M0 72C0 32.2355 32.2355 0 72 0H141C180.764 0 213 32.2355 213 72V100C213 101.105 212.105 102 211 102H2.00001C0.895436 102 0 101.105 0 100V72Z" fill="#DFF7E2"/>
<rect x="45" y="22" width="57" height="53" rx="22" fill="#00D09E"/>
<path d="M130.769 53.3287C130.231 54.6656 129.97 56.0944 130.003 57.5313C130.003 63.4896 151.986 63.4896 151.997 57.5313C152.03 56.0944 151.77 54.6656 151.232 53.3287C150.693 51.9919 149.889 50.7739 148.864 49.7464C147.84 48.7188 146.616 47.9024 145.266 47.345C143.915 46.7876 142.465 46.5005 141 46.5005C139.535 46.5005 138.085 46.7876 136.734 47.345C135.384 47.9024 134.16 48.7188 133.136 49.7464C132.111 50.7739 131.307 51.9919 130.769 53.3287Z" stroke="#052224" stroke-width="2" stroke-linecap="round" stroke-linejoin="round"/>
<path d="M140.992 43.6626C143.43 43.6626 145.407 41.7234 145.407 39.3313C145.407 36.9392 143.43 35 140.992 35C138.553 35 136.577 36.9392 136.577 39.3313C136.577 41.7234 138.553 43.6626 140.992 43.6626Z" stroke="#052224" stroke-width="2" stroke-linecap="round" stroke-linejoin="round"/>
</svg>
