<svg width="51" height="48" viewBox="0 0 51 48" fill="none" xmlns="http://www.w3.org/2000/svg">
<path d="M31.9273 9.66667H18.8485M35.197 35.9444C34.2698 33.2185 30.2304 31.1667 25.3879 31.1667C20.5455 31.1667 16.5062 33.2185 15.5788 35.9444M25.3879 21.6111H25.4206M12.9631 45.5H37.8128C41.4752 45.5 43.3066 45.5 44.7053 44.9792C45.9357 44.5213 46.9363 43.7903 47.5631 42.8913C48.2759 41.8694 48.2759 40.5313 48.2759 37.8556V10.1444C48.2759 7.46865 48.2759 6.13073 47.5631 5.10871C46.9363 4.2097 45.9357 3.4788 44.7053 3.02075C43.3066 2.5 41.4752 2.5 37.8128 2.5H12.9631C9.30066 2.5 7.46943 2.5 6.07058 3.02075C4.8401 3.4788 3.8397 4.2097 3.21276 5.10871C2.5 6.13073 2.5 7.46863 2.5 10.1444V37.8556C2.5 40.5313 2.5 41.8694 3.21276 42.8913C3.8397 43.7903 4.8401 44.5213 6.07058 44.9792C7.46943 45.5 9.30063 45.5 12.9631 45.5ZM28.6576 21.6111C28.6576 22.9305 27.1938 24 25.3879 24C23.5821 24 22.1182 22.9305 22.1182 21.6111C22.1182 20.2917 23.5821 19.2222 25.3879 19.2222C27.1938 19.2222 28.6576 20.2917 28.6576 21.6111Z" stroke="white" stroke-width="5" stroke-linecap="round" stroke-linejoin="round"/>
</svg>
