<svg width="29" height="25" viewBox="0 0 29 25" fill="none" xmlns="http://www.w3.org/2000/svg">
<g clip-path="url(#clip0_9095_1091)">
<path d="M11.8382 17.893H17.5027C18.0235 17.8915 18.5226 17.6839 18.8909 17.3156C19.2591 16.9473 19.4667 16.4483 19.4682 15.9274C19.4652 15.4076 19.2571 14.9099 18.8889 14.5429C18.5208 14.1758 18.0225 13.969 17.5027 13.9675H13.9114C13.1055 13.958 12.3055 13.8282 11.538 13.5823C10.1162 13.2765 7.81648 13.2595 6.76289 15.9274H4.49711M19.4399 15.9274L24.5379 12.9253C24.9828 12.6557 25.5165 12.5735 26.0219 12.6967C26.5273 12.8198 26.9632 13.1383 27.2342 13.5823C27.5027 14.0269 27.585 14.5595 27.463 15.0644C27.3411 15.5693 27.0247 16.0056 26.5828 16.2786L19.9157 21.2973C18.7271 22.1918 17.2796 22.675 15.792 22.6738H4.46309M17.548 7.03989L16.1601 8.43335C16.1517 8.44209 16.1416 8.44904 16.1304 8.45379C16.1192 8.45853 16.1072 8.46094 16.095 8.46094C16.0828 8.46094 16.0709 8.45853 16.0597 8.45379C16.0485 8.44904 16.0383 8.44209 16.0299 8.43335L15.1745 7.03422H11.4361C11.1073 7.88962 10.5269 8.62526 9.77144 9.14404C9.01602 9.66282 8.12114 9.94037 7.20473 9.94008C6.00289 9.94008 4.85019 9.46266 4.00036 8.61282C3.15053 7.76299 2.67317 6.61037 2.67317 5.40852C2.67317 4.20667 3.15053 3.05405 4.00036 2.20422C4.85019 1.35438 6.00289 0.876955 7.20473 0.876955C8.12047 0.876224 9.01485 1.15296 9.7702 1.67068C10.5255 2.1884 11.1064 2.92281 11.4361 3.77715H19.7685L21.8983 5.58412L19.0661 8.51263L17.548 7.0682M4.47443 14.9248C4.47443 14.8437 4.44218 14.7659 4.38481 14.7085C4.32745 14.6511 4.24965 14.6189 4.16852 14.6189H1.18334C1.10222 14.6189 1.02442 14.6511 0.967055 14.7085C0.909691 14.7659 0.877441 14.8437 0.877441 14.9248V23.6651C0.877441 23.7462 0.909691 23.824 0.967055 23.8813C1.02442 23.9387 1.10222 23.971 1.18334 23.971H4.16852C4.24965 23.971 4.32745 23.9387 4.38481 23.8813C4.44218 23.824 4.47443 23.7462 4.47443 23.6651V14.9248Z" stroke="#F1FFF3" stroke-width="1.69934" stroke-linecap="round" stroke-linejoin="round"/>
<path d="M5.98695 6.34353C6.66268 6.34353 7.21047 5.79574 7.21047 5.12001C7.21047 4.44427 6.66268 3.89648 5.98695 3.89648C5.31122 3.89648 4.76343 4.44427 4.76343 5.12001C4.76343 5.79574 5.31122 6.34353 5.98695 6.34353Z" fill="#F1FFF3"/>
</g>
<defs>
<clipPath id="clip0_9095_1091">
<rect width="28.3733" height="24.8216" fill="white"/>
</clipPath>
</defs>
</svg>
