<svg width="32" height="27" viewBox="0 0 32 27" fill="none" xmlns="http://www.w3.org/2000/svg">
<path d="M18.4025 6.66667C17.6201 6.66667 16.9858 7.26363 16.9858 8C16.9858 8.73637 17.6201 9.33333 18.4025 9.33333V6.66667ZM18.4167 9.33333C19.1991 9.33333 19.8333 8.73637 19.8333 8C19.8333 7.26363 19.1991 6.66667 18.4167 6.66667V9.33333ZM12.7358 6.66667C11.9535 6.66667 11.3192 7.26363 11.3192 8C11.3192 8.73637 11.9535 9.33333 12.7358 9.33333V6.66667ZM12.75 9.33333C13.5324 9.33333 14.1667 8.73637 14.1667 8C14.1667 7.26363 13.5324 6.66667 12.75 6.66667V9.33333ZM10.6119 12.5719C11.1707 12.0564 11.1797 11.2123 10.6321 10.6864C10.0844 10.1604 9.18746 10.152 8.62868 10.6675L10.6119 12.5719ZM5.79008 18.8873C5.91952 19.6135 6.65 20.1035 7.42161 19.9816C8.19323 19.8597 8.71381 19.1723 8.58435 18.446L5.79008 18.8873ZM9.08405 13.2371C9.79749 12.9348 10.1155 12.1455 9.79426 11.474C9.47306 10.8025 8.63432 10.5032 7.92089 10.8055L9.08405 13.2371ZM6.72277 22.122C7.37556 21.716 7.5551 20.8889 7.1238 20.2745C6.69248 19.6601 5.81365 19.4911 5.16087 19.8971L6.72277 22.122ZM15.8025 12.6756C16.5824 12.7351 17.2658 12.1883 17.3291 11.4544C17.3923 10.7204 16.8114 10.0771 16.0316 10.0176L15.8025 12.6756ZM15.1061 10.0176C14.3262 10.0771 13.7454 10.7204 13.8085 11.4544C13.8717 12.1883 14.5553 12.7351 15.3351 12.6756L15.1061 10.0176ZM22.5097 10.6675C21.951 10.152 21.0541 10.1604 20.5064 10.6864C19.9587 11.2123 19.9676 12.0564 20.5265 12.5719L22.5097 10.6675ZM22.554 18.446C22.4246 19.1723 22.9452 19.8597 23.7168 19.9816C24.4884 20.1035 25.2189 19.6135 25.3483 18.8873L22.554 18.446ZM23.2479 10.8055C22.5345 10.5032 21.6958 10.8025 21.3745 11.474C21.0534 12.1455 21.3714 12.9348 22.0849 13.2371L23.2479 10.8055ZM25.9909 19.8864C25.3413 19.4759 24.4612 19.6387 24.025 20.25C23.5888 20.8613 23.7618 21.6897 24.4113 22.1001L25.9909 19.8864ZM18.4025 9.33333H18.4167V6.66667H18.4025V9.33333ZM12.7358 9.33333H12.75V6.66667H12.7358V9.33333ZM8.48587 5.33333C7.70347 5.33333 7.0692 4.73637 7.0692 4H4.23587C4.23587 6.20913 6.13866 8 8.48587 8V5.33333ZM7.0692 4C7.0692 3.26363 7.70347 2.66667 8.48587 2.66667V0C6.13866 0 4.23587 1.79087 4.23587 4H7.0692ZM8.48587 2.66667C9.05064 2.66667 9.54107 2.97767 9.76904 3.43348L12.3326 2.29773C11.6548 0.94256 10.1887 0 8.48587 0V2.66667ZM24.0692 4C24.0692 4.73637 23.4349 5.33333 22.6525 5.33333V8C24.9998 8 26.9025 6.20913 26.9025 4H24.0692ZM22.6525 2.66667C23.4349 2.66667 24.0692 3.26363 24.0692 4H26.9025C26.9025 1.79087 24.9998 0 22.6525 0V2.66667ZM21.3693 3.43348C21.5974 2.97767 22.0878 2.66667 22.6525 2.66667V0C20.9497 0 19.4837 0.94256 18.8058 2.29773L21.3693 3.43348ZM22.6525 5.33333C22.6281 5.33333 22.6041 5.33276 22.5801 5.33165L22.44 7.99505C22.5106 7.99835 22.5814 8 22.6525 8V5.33333ZM19.2811 19.6615L17.089 24.77L19.7162 25.7687L21.9083 20.6601L19.2811 19.6615ZM15.5692 26.6667C16.4648 26.6667 17.4814 26.6672 18.5022 26.5993L18.3028 23.9393C17.3975 23.9995 16.4799 24 15.5692 24V26.6667ZM18.5022 26.5993C20.0522 26.4964 21.7617 26.2295 23.2417 25.4619C24.7823 24.6628 25.9953 23.3608 26.5574 21.3793L23.82 20.6915C23.4627 21.9507 22.7588 22.6676 21.8742 23.1264C20.929 23.6165 19.705 23.8461 18.3028 23.9393L18.5022 26.5993ZM22.948 17.3333C21.3357 17.3333 19.8849 18.2545 19.2811 19.6615L21.9083 20.6601C22.0795 20.2612 22.4909 20 22.948 20V17.3333ZM22.948 20C23.2668 20 23.5395 20.1275 23.6949 20.2839C23.8317 20.4215 23.8601 20.55 23.82 20.6915L26.5574 21.3793C26.8788 20.2463 26.4878 19.1904 25.7642 18.4623C25.0593 17.7529 24.0308 17.3333 22.948 17.3333V20ZM9.23011 20.6601L11.4223 25.7687L14.0495 24.77L11.8573 19.6615L9.23011 20.6601ZM15.5692 24C14.6585 24 13.7408 23.9995 12.8356 23.9393L12.6361 26.5993C13.6571 26.6672 14.6737 26.6667 15.5692 26.6667V24ZM12.8356 23.9393C11.4334 23.8461 10.2095 23.6165 9.26421 23.1264C8.37972 22.6676 7.67565 21.9507 7.31841 20.6915L4.58098 21.3793C5.14314 23.3608 6.35608 24.6628 7.89679 25.4619C9.37674 26.2295 11.0862 26.4964 12.6361 26.5993L12.8356 23.9393ZM11.8573 19.6615C11.2535 18.2545 9.80269 17.3333 8.19045 17.3333V20C8.64758 20 9.05892 20.2612 9.23011 20.6601L11.8573 19.6615ZM7.31841 20.6915C7.27827 20.55 7.30673 20.4215 7.44347 20.2839C7.59892 20.1275 7.87162 20 8.19045 20V17.3333C7.10765 17.3333 6.07916 17.7529 5.37423 18.4623C4.6506 19.1904 4.2595 20.2463 4.58098 21.3793L7.31841 20.6915ZM8.48636 17.3333C8.48636 15.4679 9.29857 13.7833 10.6119 12.5719L8.62868 10.6675C6.79401 12.3599 5.65303 14.7224 5.65303 17.3333H8.48636ZM8.58435 18.446C8.52001 18.0851 8.48636 17.7135 8.48636 17.3333H5.65303C5.65303 17.8619 5.69984 18.3811 5.79008 18.8873L8.58435 18.446ZM7.92089 10.8055C6.74719 11.3028 5.00884 12.2353 3.46871 13.4837C1.96188 14.7051 0.435191 16.3981 0.0722837 18.4475L2.86707 18.8859C3.06635 17.7605 3.98444 16.5849 5.31763 15.5044C6.61754 14.4507 8.11449 13.648 9.08405 13.2371L7.92089 10.8055ZM0.0722837 18.4475C-0.256845 20.3061 0.558796 21.8447 2.09487 22.5504C3.52352 23.2069 5.29357 23.0107 6.72277 22.122L5.16087 19.8971C4.42876 20.3523 3.72424 20.3316 3.33787 20.1541C3.15504 20.0701 3.02473 19.9479 2.94241 19.7852C2.85871 19.6196 2.78735 19.336 2.86707 18.8859L0.0722837 18.4475ZM9.90253 8C9.90253 5.05448 12.4396 2.66667 15.5692 2.66667V0C10.8748 0 7.0692 3.58172 7.0692 8H9.90253ZM15.5692 2.66667C18.6989 2.66667 21.2358 5.05448 21.2358 8H24.0692C24.0692 3.58172 20.2636 0 15.5692 0V2.66667ZM15.5692 13.3333C12.4396 13.3333 9.90253 10.9455 9.90253 8H7.0692C7.0692 12.4183 10.8748 16 15.5692 16V13.3333ZM21.2358 8C21.2358 10.9455 18.6989 13.3333 15.5692 13.3333V16C20.2636 16 24.0692 12.4183 24.0692 8H21.2358ZM15.5687 12.6667C15.6478 12.6667 15.7257 12.6697 15.8025 12.6756L16.0316 10.0176C15.8787 10.0059 15.7243 10 15.5687 10V12.6667ZM15.3351 12.6756C15.4119 12.6697 15.4898 12.6667 15.5687 12.6667V10C15.4133 10 15.2589 10.0059 15.1061 10.0176L15.3351 12.6756ZM14.1521 11.3335L14.1525 14.6668L16.9858 14.6665L16.9854 11.3332L14.1521 11.3335ZM20.5265 12.5719C21.8399 13.7833 22.6521 15.4679 22.6521 17.3333H25.4854C25.4854 14.7224 24.3444 12.3599 22.5097 10.6675L20.5265 12.5719ZM22.6521 17.3333C22.6521 17.7135 22.6184 18.0851 22.554 18.446L25.3483 18.8873C25.4385 18.3811 25.4854 17.8619 25.4854 17.3333H22.6521ZM22.0849 13.2371C23.0544 13.648 24.5513 14.4507 25.8512 15.5044C27.1844 16.5849 28.1024 17.7605 28.3017 18.8859L31.0965 18.4475C30.7336 16.3981 29.207 14.7051 27.7001 13.4837C26.16 12.2353 24.4216 11.3028 23.2479 10.8055L22.0849 13.2371ZM28.3017 18.8859C28.3818 19.3377 28.3095 19.6219 28.2254 19.7872C28.1425 19.95 28.0112 20.0724 27.8265 20.1563C27.4359 20.3333 26.7251 20.3504 25.9909 19.8864L24.4113 22.1001C25.8418 23.0043 27.6196 23.2104 29.0567 22.5583C30.6026 21.8569 31.4272 20.3144 31.0965 18.4475L28.3017 18.8859Z" fill="white"/>
</svg>
